<svg width="64" height="64" viewBox="0 0 64 64" fill="none" xmlns="http://www.w3.org/2000/svg">
<g clip-path="url(#clip0_316_2)">
<rect width="64" height="64" rx="5" fill="#110F19"/>
<rect x="9.5" y="9.5" width="44" height="44" stroke="white"/>
<rect x="-12" y="20" width="87" height="21" fill="#110F19"/>
<path d="M12.084 36.143C11.928 36.143 11.7937 36.0043 11.681 35.727C11.5683 35.4497 11.4557 35.0727 11.343 34.596L11.096 33.66C9.89133 29.0493 9.15033 26.1677 8.873 25.015C8.63033 26.1243 8.431 27.0733 8.275 27.862C7.50367 31.5367 6.923 34.206 6.533 35.87C6.48967 36.0433 6.377 36.13 6.195 36.13C6.013 36.13 5.922 36.052 5.922 35.896C5.922 35.818 6.06933 35.1853 6.364 33.998C6.48533 33.504 6.90133 31.5583 7.612 28.161C8.236 25.1363 8.56533 23.5937 8.6 23.533C8.626 23.4463 8.691 23.403 8.795 23.403C8.89033 23.403 8.964 23.4333 9.016 23.494C9.068 23.5547 9.11133 23.6587 9.146 23.806C9.28467 24.4733 9.70933 26.1893 10.42 28.954C11.1393 31.71 11.681 33.725 12.045 34.999C12.2357 33.9243 12.6387 31.7793 13.254 28.564L14.164 23.689C14.1987 23.6023 14.2593 23.5287 14.346 23.468C14.4413 23.4073 14.5323 23.377 14.619 23.377C14.6797 23.377 14.7143 23.3943 14.723 23.429C14.7403 23.455 14.749 23.4983 14.749 23.559C14.749 23.6197 14.749 23.663 14.749 23.689C14.385 25.483 13.9993 27.472 13.592 29.656C13.1847 31.84 12.851 33.7033 12.591 35.246C12.5737 35.3153 12.5477 35.441 12.513 35.623C12.4783 35.805 12.4263 35.935 12.357 36.013C12.2963 36.0997 12.2053 36.143 12.084 36.143ZM16.5874 36.13C16.2927 36.13 16.1454 35.8917 16.1454 35.415C16.1454 35.2937 16.167 35.1853 16.2104 35.09C16.2537 34.9427 16.2927 34.7737 16.3274 34.583L16.5224 33.712L16.7824 32.568C16.869 32.1433 16.973 31.6667 17.0944 31.138C17.1117 31.086 17.129 30.9993 17.1464 30.878C17.233 30.5053 17.2764 30.2887 17.2764 30.228V30.098C17.2764 30.0287 17.246 29.8857 17.1854 29.669C17.1854 29.565 17.22 29.4697 17.2894 29.383C17.3674 29.2963 17.4584 29.253 17.5624 29.253C17.6577 29.253 17.74 29.318 17.8094 29.448C17.8787 29.578 17.9134 29.721 17.9134 29.877C17.9134 30.0503 17.714 30.9863 17.3154 32.685C16.9167 34.3837 16.7174 35.285 16.7174 35.389C16.7174 35.4843 16.7607 35.532 16.8474 35.532C16.8907 35.532 16.9687 35.4757 17.0814 35.363C17.1854 35.259 17.272 35.207 17.3414 35.207C17.48 35.207 17.5494 35.2937 17.5494 35.467C17.5494 35.571 17.4887 35.675 17.3674 35.779C17.246 35.883 17.1074 35.9653 16.9514 36.026C16.7954 36.0953 16.674 36.13 16.5874 36.13ZM17.9004 28.278C17.7617 28.278 17.6577 28.2607 17.5884 28.226H17.5364C17.285 28.226 17.1594 28.0787 17.1594 27.784C17.1594 27.6367 17.22 27.5023 17.3414 27.381C17.4714 27.2597 17.61 27.199 17.7574 27.199C17.9047 27.199 18.0434 27.251 18.1734 27.355C18.3207 27.5023 18.3944 27.6453 18.3944 27.784C18.3944 27.914 18.3424 28.031 18.2384 28.135C18.143 28.2303 18.0304 28.278 17.9004 28.278ZM20.2127 35.038C20.2127 34.9253 20.243 34.8473 20.3037 34.804C20.3643 34.7607 20.4423 34.7303 20.5377 34.713C20.6157 34.713 20.6763 34.739 20.7197 34.791C20.7717 34.843 20.8323 34.9253 20.9017 35.038C20.971 35.1593 21.0273 35.246 21.0707 35.298C21.1227 35.3413 21.2093 35.363 21.3307 35.363C21.608 35.363 21.8333 35.2763 22.0067 35.103C22.1887 34.9297 22.2797 34.726 22.2797 34.492C22.2797 34.2407 22.2277 33.9763 22.1237 33.699C22.0197 33.4217 21.8593 33.075 21.6427 32.659C21.2093 31.879 20.9927 31.2593 20.9927 30.8C20.9927 30.3407 21.1053 29.9723 21.3307 29.695C21.5647 29.4177 21.881 29.279 22.2797 29.279C22.557 29.279 22.8213 29.357 23.0727 29.513C23.324 29.669 23.4497 29.864 23.4497 30.098C23.4497 30.3493 23.3457 30.475 23.1377 30.475C23.077 30.475 23.025 30.4577 22.9817 30.423C22.947 30.3883 22.9123 30.3493 22.8777 30.306C22.843 30.254 22.817 30.2193 22.7997 30.202C22.6437 30.02 22.4703 29.929 22.2797 29.929C21.855 29.929 21.6427 30.176 21.6427 30.67C21.6427 30.9387 21.6947 31.2117 21.7987 31.489C21.9027 31.7663 22.0587 32.1173 22.2667 32.542C22.466 32.958 22.6177 33.3047 22.7217 33.582C22.8257 33.8593 22.8777 34.1237 22.8777 34.375C22.8777 34.817 22.7433 35.1897 22.4747 35.493C22.206 35.7963 21.829 35.9783 21.3437 36.039C21.0403 36.039 20.776 35.935 20.5507 35.727C20.3253 35.5103 20.2127 35.2807 20.2127 35.038ZM25.8754 36.104C25.728 36.104 25.6544 36.0303 25.6544 35.883C25.6544 35.7617 26.079 33.7467 26.9284 29.838C27.171 28.668 27.4094 27.485 27.6434 26.289C27.886 25.0843 28.0637 24.2047 28.1764 23.65C28.2197 23.52 28.2934 23.455 28.3974 23.455C28.6227 23.455 28.7614 23.5633 28.8134 23.78C28.692 24.404 28.497 25.366 28.2284 26.666C27.9597 27.9573 27.73 29.0537 27.5394 29.955L27.0454 32.23C27.9294 30.41 28.7657 29.5 29.5544 29.5C29.8577 29.5 30.0917 29.6213 30.2564 29.864C30.421 30.098 30.5034 30.3797 30.5034 30.709C30.5034 31.0297 30.447 31.4543 30.3344 31.983L30.1264 33.075C29.8837 34.3317 29.7624 35.0467 29.7624 35.22L29.7884 35.727C29.7884 35.8397 29.7494 35.9307 29.6714 36C29.602 36.0607 29.5067 36.091 29.3854 36.091C29.2727 36.091 29.186 36.0563 29.1254 35.987C29.0647 35.909 29.0344 35.805 29.0344 35.675C29.0344 35.597 29.0387 35.5363 29.0474 35.493L29.8014 31.268C29.8274 31.138 29.8404 30.982 29.8404 30.8C29.8404 30.3667 29.719 30.15 29.4764 30.15C29.199 30.15 28.8697 30.3927 28.4884 30.878C28.107 31.3547 27.7474 31.8963 27.4094 32.503C27.08 33.1097 26.872 33.543 26.7854 33.803C26.6814 34.115 26.5817 34.466 26.4864 34.856C26.391 35.2373 26.3434 35.48 26.3434 35.584C26.352 35.8007 26.3304 35.9393 26.2784 36C26.2264 36.0693 26.092 36.104 25.8754 36.104ZM37.1304 36.026C36.9311 36.026 36.7448 35.922 36.5714 35.714C36.4068 35.4973 36.3244 35.2677 36.3244 35.025C36.3244 34.4877 36.4674 33.5777 36.7534 32.295C36.5368 32.763 36.2551 33.244 35.9084 33.738C35.5704 34.2233 35.2368 34.6523 34.9074 35.025C34.5781 35.3977 34.3354 35.6403 34.1794 35.753C33.9628 35.9177 33.7244 36 33.4644 36C32.9704 36 32.7234 35.688 32.7234 35.064C32.7234 34.4573 32.9531 33.7033 33.4124 32.802C33.8718 31.892 34.4178 31.1033 35.0504 30.436C35.6831 29.7773 36.1944 29.448 36.5844 29.448C36.9831 29.448 37.2084 29.6213 37.2604 29.968C37.2864 30.072 37.2994 30.1847 37.2994 30.306C37.3428 30.28 37.3904 30.267 37.4424 30.267C37.6418 30.267 37.7414 30.3623 37.7414 30.553V30.605L37.5854 31.177C37.4641 31.6103 37.3384 32.2517 37.2084 33.101C37.0784 33.9503 37.0134 34.6567 37.0134 35.22L37.1434 35.298C37.3514 35.428 37.4554 35.558 37.4554 35.688C37.4554 35.7747 37.4251 35.8527 37.3644 35.922C37.3038 35.9913 37.2258 36.026 37.1304 36.026ZM33.5684 35.324C33.6638 35.324 33.7418 35.2937 33.8024 35.233C34.6864 34.479 35.4708 33.4347 36.1554 32.1C36.4501 31.5453 36.6321 31.1813 36.7014 31.008C36.7794 30.8347 36.8184 30.6657 36.8184 30.501C36.8184 30.4143 36.7968 30.3363 36.7534 30.267C36.7101 30.1977 36.6538 30.163 36.5844 30.163C36.4978 30.163 36.3851 30.202 36.2464 30.28C35.8998 30.462 35.4881 30.8477 35.0114 31.437C34.5434 32.0263 34.1578 32.6503 33.8544 33.309C33.5338 33.9763 33.3734 34.57 33.3734 35.09C33.3734 35.246 33.4384 35.324 33.5684 35.324ZM43.6983 36.078C43.5596 36.078 43.4599 36.052 43.3993 36C43.3386 35.948 43.3169 35.857 43.3343 35.727L43.9713 31.931C44.0493 31.463 44.0883 31.1033 44.0883 30.852C44.0883 30.436 43.9713 30.228 43.7373 30.228C43.4513 30.228 43.0569 30.7263 42.5543 31.723C42.0603 32.711 41.5489 33.829 41.0203 35.077L40.8383 35.493C40.6823 35.831 40.5263 36 40.3703 36C40.2836 36 40.2273 35.9827 40.2013 35.948C40.1839 35.9047 40.1753 35.818 40.1753 35.688C40.1753 35.558 40.3443 34.557 40.6823 32.685C41.0289 30.813 41.2283 29.8293 41.2803 29.734C41.3323 29.63 41.3756 29.565 41.4103 29.539C41.4536 29.513 41.5316 29.5 41.6443 29.5C41.7483 29.5 41.8306 29.539 41.8913 29.617C41.9606 29.695 41.9953 29.773 41.9953 29.851C41.9953 29.903 41.9519 30.072 41.8653 30.358C41.6053 31.242 41.4016 32.1 41.2543 32.932L41.1243 33.699C41.2716 33.387 41.3799 33.1443 41.4493 32.971C41.6919 32.4077 41.9129 31.9137 42.1123 31.489C42.3203 31.0643 42.5499 30.67 42.8013 30.306C43.1826 29.76 43.5379 29.487 43.8673 29.487C44.4479 29.487 44.7383 29.955 44.7383 30.891C44.7383 31.0903 44.7123 31.346 44.6603 31.658C44.6083 31.97 44.5519 32.2907 44.4913 32.62C44.3699 33.2527 44.2919 33.686 44.2573 33.92L44.1663 34.518C44.0883 35.0553 44.0189 35.4497 43.9583 35.701C43.8976 35.9523 43.8109 36.078 43.6983 36.078ZM48.434 36.052C48.1307 36.052 47.901 35.974 47.745 35.818C47.5977 35.662 47.524 35.3803 47.524 34.973C47.524 34.7477 47.55 34.4877 47.602 34.193L47.719 33.452L47.862 32.841L47.94 32.49L48.109 31.775C48.1264 31.6623 48.1654 31.4803 48.226 31.229L48.291 30.969L48.408 30.41L48.486 30.02C48.148 30.02 47.836 30.0417 47.55 30.085C47.3767 30.059 47.29 29.9853 47.29 29.864C47.29 29.7773 47.3247 29.695 47.394 29.617C47.4634 29.539 47.5457 29.4957 47.641 29.487L48.577 29.513C48.577 29.513 48.5987 29.4047 48.642 29.188C48.6594 29.0147 48.694 28.8153 48.746 28.59C48.798 28.3647 48.863 28.1653 48.941 27.992C49.019 27.8013 49.1317 27.706 49.279 27.706C49.4177 27.706 49.487 27.784 49.487 27.94V28.018C49.4524 28.1913 49.422 28.317 49.396 28.395L49.175 29.5H50.111C50.4404 29.5 50.644 29.526 50.722 29.578C50.7914 29.63 50.826 29.695 50.826 29.773C50.826 29.9117 50.761 30.0027 50.631 30.046C50.5097 30.0807 50.2974 30.098 49.994 30.098C49.7167 30.098 49.409 30.085 49.071 30.059C49.019 30.345 48.8414 31.138 48.538 32.438C48.2607 33.6167 48.122 34.362 48.122 34.674C48.122 35.012 48.161 35.233 48.239 35.337C48.2824 35.4063 48.3734 35.441 48.512 35.441C48.6334 35.441 48.7374 35.4107 48.824 35.35C48.9194 35.2807 49.0147 35.1897 49.11 35.077C49.2054 34.9557 49.2877 34.8647 49.357 34.804C49.4264 34.7433 49.5 34.713 49.578 34.713C49.7514 34.713 49.838 34.7997 49.838 34.973C49.838 35.0597 49.7514 35.2027 49.578 35.402C49.4047 35.6013 49.24 35.7617 49.084 35.883C48.9454 35.9957 48.7287 36.052 48.434 36.052ZM52.9113 36.104C52.764 36.104 52.6903 36.0303 52.6903 35.883C52.6903 35.7617 53.115 33.7467 53.9643 29.838C54.207 28.668 54.4453 27.485 54.6793 26.289C54.922 25.0843 55.0996 24.2047 55.2123 23.65C55.2556 23.52 55.3293 23.455 55.4333 23.455C55.6586 23.455 55.7973 23.5633 55.8493 23.78C55.728 24.404 55.533 25.366 55.2643 26.666C54.9956 27.9573 54.766 29.0537 54.5753 29.955L54.0813 32.23C54.9653 30.41 55.8016 29.5 56.5903 29.5C56.8936 29.5 57.1276 29.6213 57.2923 29.864C57.457 30.098 57.5393 30.3797 57.5393 30.709C57.5393 31.0297 57.483 31.4543 57.3703 31.983L57.1623 33.075C56.9196 34.3317 56.7983 35.0467 56.7983 35.22L56.8243 35.727C56.8243 35.8397 56.7853 35.9307 56.7073 36C56.638 36.0607 56.5426 36.091 56.4213 36.091C56.3086 36.091 56.222 36.0563 56.1613 35.987C56.1006 35.909 56.0703 35.805 56.0703 35.675C56.0703 35.597 56.0746 35.5363 56.0833 35.493L56.8373 31.268C56.8633 31.138 56.8763 30.982 56.8763 30.8C56.8763 30.3667 56.755 30.15 56.5123 30.15C56.235 30.15 55.9056 30.3927 55.5243 30.878C55.143 31.3547 54.7833 31.8963 54.4453 32.503C54.116 33.1097 53.908 33.543 53.8213 33.803C53.7173 34.115 53.6176 34.466 53.5223 34.856C53.427 35.2373 53.3793 35.48 53.3793 35.584C53.388 35.8007 53.3663 35.9393 53.3143 36C53.2623 36.0693 53.128 36.104 52.9113 36.104Z" fill="white"/>
</g>
<defs>
<clipPath id="clip0_316_2">
<rect width="64" height="64" rx="5" fill="white"/>
</clipPath>
</defs>
</svg>
