<svg width="512" height="512" viewBox="0 0 512 512" fill="none" xmlns="http://www.w3.org/2000/svg">
<rect width="512" height="512" rx="25.6" fill="#090A0F"/>
<circle cx="256" cy="256" r="201.5" stroke="white" stroke-width="3"/>
<rect x="99.7863" y="330.462" width="400" height="100" transform="rotate(-48.2897 99.7863 330.462)" fill="#090A0F"/>
<path d="M260.92 391.84C261.88 391.72 262.72 391.96 263.44 392.56C264.28 393.16 264.7 393.94 264.7 394.9C264.82 395.86 264.58 396.76 263.98 397.6C257.62 405.4 250.9 409.3 243.82 409.3C243.58 409.3 243.34 409.3 243.1 409.3C240.58 409.3 238.06 408.76 235.54 407.68C233.02 406.72 230.38 405.1 227.62 402.82C224.98 400.66 222.64 398.56 220.6 396.52C218.56 394.48 215.98 391.48 212.86 387.52C209.86 383.56 207.46 380.38 205.66 377.98C203.86 375.58 201.22 371.86 197.74 366.82C192.7 359.86 188.74 354.46 185.86 350.62C183.1 346.78 179.32 342.04 174.52 336.4C169.72 330.76 165.16 326.08 160.84 322.36C153.52 324.16 146.32 325 139.24 324.88C124.6 384.76 116.14 422.8 113.86 439C114.22 438.16 114.64 437.2 115.12 436.12C115.48 435.28 116.08 434.68 116.92 434.32C117.88 433.96 118.78 433.96 119.62 434.32C120.58 434.8 121.18 435.46 121.42 436.3C121.78 437.26 121.78 438.16 121.42 439C120.22 441.76 119.14 443.98 118.18 445.66C117.34 447.34 116.5 448.84 115.66 450.16C114.82 451.48 113.98 452.44 113.14 453.04C112.42 453.64 111.64 453.94 110.8 453.94C110.32 453.94 109.84 453.82 109.36 453.58C108.28 453.22 107.5 452.56 107.02 451.6C106.54 450.76 106.3 448.84 106.3 445.84C106.3 442.96 106.78 438.76 107.74 433.24C108.7 427.72 110.14 420.22 112.06 410.74C114.1 401.26 116.74 389.5 119.98 375.46C123.22 361.42 127.3 344.38 132.22 324.34C126.1 323.62 121.24 322.06 117.64 319.66C114.04 317.26 111.76 314.5 110.8 311.38C109.36 307.18 110.44 303.7 114.04 300.94C119.2 296.86 127.18 296.74 137.98 300.58C139.54 294.46 141.04 288.28 142.48 282.04C152.8 240.04 159.34 212.92 162.1 200.68C162.34 199.72 162.82 199 163.54 198.52C164.38 197.92 165.28 197.74 166.24 197.98C167.2 198.22 167.92 198.76 168.4 199.6C168.88 200.32 169.06 201.16 168.94 202.12C166.18 214.48 159.64 241.66 149.32 283.66C147.04 292.54 145.42 299.14 144.46 303.46C147.46 304.9 150.52 306.52 153.64 308.32C156.52 310.12 159.46 312.22 162.46 314.62C175.66 310.9 188.56 304.18 201.16 294.46C213.76 284.74 224.86 271.72 234.46 255.4C242.14 242.44 246.88 230.02 248.68 218.14C250.48 206.26 249.1 196.6 244.54 189.16C237.7 178.36 224.68 173.62 205.48 174.94C196 175.54 186.04 177.58 175.6 181.06C165.16 184.42 155.38 188.68 146.26 193.84C137.26 199 128.98 204.94 121.42 211.66C113.98 218.38 108.28 225.22 104.32 232.18C96.64 245.62 95.86 258.4 101.98 270.52C102.34 271.36 102.34 272.26 101.98 273.22C101.74 274.06 101.2 274.72 100.36 275.2C99.52 275.56 98.62 275.62 97.66 275.38C96.82 275.02 96.16 274.42 95.68 273.58C88.48 259.18 89.32 244.24 98.2 228.76C103.96 218.68 112.6 209.14 124.12 200.14C135.76 191.14 148.72 183.76 163 178C177.4 172.24 191.44 168.88 205.12 167.92C227.08 166.48 242.14 172.36 250.3 185.56C255.58 194.08 257.32 204.94 255.52 218.14C253.84 231.22 248.8 244.84 240.4 259C229.12 278.2 214.66 293.8 197.02 305.8C187.9 312.16 178.48 316.96 168.76 320.2C172.72 323.92 176.92 328.48 181.36 333.88C185.92 339.28 189.52 343.84 192.16 347.56C194.92 351.16 198.64 356.26 203.32 362.86C207.16 368.14 210.04 372.1 211.96 374.74C213.88 377.5 216.52 380.92 219.88 385C223.24 389.2 226 392.32 228.16 394.36C230.44 396.4 232.96 398.2 235.72 399.76C238.48 401.44 241 402.34 243.28 402.46C248.32 402.58 253.48 399.46 258.76 393.1C259.36 392.38 260.08 391.96 260.92 391.84ZM117.28 309.4C117.64 310.6 118.48 311.74 119.8 312.82C121.12 313.9 122.98 314.92 125.38 315.88C127.9 316.72 130.72 317.32 133.84 317.68C134.68 314.32 135.52 310.96 136.36 307.6C131.44 305.68 127.36 304.72 124.12 304.72C121.6 304.72 119.62 305.26 118.18 306.34C117.22 307.18 116.92 308.2 117.28 309.4ZM140.86 317.86C145.06 317.86 149.32 317.44 153.64 316.6C152.44 315.76 151.24 314.98 150.04 314.26C147.76 312.94 145.3 311.62 142.66 310.3C141.82 313.78 141.22 316.3 140.86 317.86Z" fill="white"/>
<path d="M409.18 163.84C409.18 164.44 409.06 165.04 408.82 165.64C408.58 166.12 408.22 166.54 407.74 166.9C407.26 167.26 406.72 167.5 406.12 167.62C392.08 169.18 379 171.82 366.88 175.54C353.44 234.7 342.94 282.52 335.38 319C332.86 330.4 329.26 339.52 324.58 346.36C319.9 353.32 314.38 357.58 308.02 359.14C306.34 359.62 304.6 359.86 302.8 359.86C294.4 359.86 286.66 355.6 279.58 347.08C274.42 340.84 270.52 332.44 267.88 321.88C265.24 311.44 264.4 299.44 265.36 285.88C266.32 272.44 269.32 259.42 274.36 246.82C283.36 224.74 297.7 206.5 317.38 192.1C329.98 182.98 344.56 175.66 361.12 170.14C366.16 147.82 370.48 129.28 374.08 114.52C376 106.72 377.14 100.12 377.5 94.72C377.86 89.32 377.74 85.78 377.14 84.1C376.66 82.3 376.06 81.28 375.34 81.04C373.9 80.56 371.86 81.4 369.22 83.56C366.58 85.6 363.76 88.78 360.76 93.1C357.76 97.3 355.36 101.86 353.56 106.78C352.72 109.06 352.06 111.34 351.58 113.62C351.1 115.78 350.86 118.18 350.86 120.82C350.86 123.46 351.52 125.92 352.84 128.2C354.28 130.36 356.32 132.04 358.96 133.24C359.8 133.6 360.4 134.26 360.76 135.22C361.12 136.06 361.12 136.9 360.76 137.74C360.4 138.58 359.74 139.18 358.78 139.54C357.94 139.9 357.04 139.9 356.08 139.54C350.2 136.9 346.42 132.46 344.74 126.22C343.18 119.98 343.96 112.66 347.08 104.26C350.08 96.1 354.64 88.72 360.76 82.12C366.88 75.4 372.4 72.82 377.32 74.38C385.72 76.9 386.86 90.82 380.74 116.14C377.38 130.06 373.36 147.28 368.68 167.8C380.08 164.56 392.32 162.22 405.4 160.78C406.24 160.66 407.02 160.9 407.74 161.5C408.58 162.1 409.06 162.88 409.18 163.84ZM328.54 317.56C335.86 282.64 346.12 236.14 359.32 178.06C348.16 182.02 338.02 186.82 328.9 192.46C319.9 198.1 312.34 204.22 306.22 210.82C300.1 217.3 295 223.66 290.92 229.9C286.96 236.14 283.6 242.68 280.84 249.52C276.88 259.24 274.18 269.86 272.74 281.38C271.42 293.02 271.72 304.48 273.64 315.76C275.68 327.04 279.4 335.98 284.8 342.58C288.16 346.66 291.7 349.54 295.42 351.22C299.26 352.9 302.92 353.32 306.4 352.48C311.44 351.28 315.82 347.68 319.54 341.68C323.38 335.68 326.38 327.64 328.54 317.56Z" fill="white"/>
</svg>
